<svg width="149" height="151" viewBox="0 0 149 151" fill="none" xmlns="http://www.w3.org/2000/svg">
    <path
        d="M8.56122 9.02301H7.00531V150.423H33.2559V30.219C21.4369 29.0999 11.465 20.5716 8.55705 9.02301H8.56122Z"
        fill="url(#paint0_linear_202_1473)" />
    <path
        d="M40.661 75.0572C46.402 66.6994 52.014 64.8315 54.7972 64.2865C69.0998 61.5034 88.4071 78.2105 98.5495 108.039"
        stroke="#231F20" stroke-width="14" stroke-linecap="round" stroke-linejoin="round" />
    <path
        d="M139.885 9.02301H141.441V150.423H115.19V30.219C127.009 29.0999 136.981 20.5716 139.889 9.02301H139.885Z"
        fill="url(#paint1_linear_202_1473)" />
    <path
        d="M62.5559 7.00116C60.2095 20.4426 48.4238 30.3438 34.7785 30.3438C21.1332 30.3438 9.35165 20.4426 7.00116 7.00116"
        stroke="#231F20" stroke-width="14" stroke-linecap="round" stroke-linejoin="round" />
    <path
        d="M85.8902 7.75C88.2365 21.1915 100.022 31.0926 113.668 31.0926C127.313 31.0926 139.094 21.1915 141.445 7.75"
        stroke="#231F20" stroke-width="14" stroke-linecap="round" stroke-linejoin="round" />
    <defs>
        <linearGradient id="paint0_linear_202_1473" x1="20.1306" y1="9.02301" x2="20.1306"
            y2="150.423" gradientUnits="userSpaceOnUse">
            <stop offset="0.75" stop-color="#E9F7FC" />
            <stop offset="0.8" stop-color="#E6F5FB" stop-opacity="0.99" />
            <stop offset="0.83" stop-color="#DFF1F9" stop-opacity="0.95" />
            <stop offset="0.86" stop-color="#D3EAF6" stop-opacity="0.89" />
            <stop offset="0.89" stop-color="#C2E0F1" stop-opacity="0.8" />
            <stop offset="0.91" stop-color="#ACD3EB" stop-opacity="0.69" />
            <stop offset="0.94" stop-color="#91C3E3" stop-opacity="0.56" />
            <stop offset="0.96" stop-color="#71B1DB" stop-opacity="0.39" />
            <stop offset="0.98" stop-color="#4C9BD1" stop-opacity="0.21" />
            <stop offset="1" stop-color="#2484C6" stop-opacity="0" />
        </linearGradient>
        <linearGradient id="paint1_linear_202_1473" x1="128.315" y1="9.02301" x2="128.315"
            y2="150.423" gradientUnits="userSpaceOnUse">
            <stop offset="0.75" stop-color="#E9F7FC" />
            <stop offset="0.8" stop-color="#E6F5FB" stop-opacity="0.99" />
            <stop offset="0.83" stop-color="#DFF1F9" stop-opacity="0.95" />
            <stop offset="0.86" stop-color="#D3EAF6" stop-opacity="0.89" />
            <stop offset="0.89" stop-color="#C2E0F1" stop-opacity="0.8" />
            <stop offset="0.91" stop-color="#ACD3EB" stop-opacity="0.69" />
            <stop offset="0.94" stop-color="#91C3E3" stop-opacity="0.56" />
            <stop offset="0.96" stop-color="#71B1DB" stop-opacity="0.39" />
            <stop offset="0.98" stop-color="#4C9BD1" stop-opacity="0.21" />
            <stop offset="1" stop-color="#2484C6" stop-opacity="0" />
        </linearGradient>
    </defs>
</svg>